<?xml version="1.0" encoding="UTF-8"?>
<svg version="1.1" xmlns="http://www.w3.org/2000/svg" width="40" height="40">
<path d="M0 0 C0.73347656 -0.01546875 1.46695312 -0.0309375 2.22265625 -0.046875 C7.5087016 -0.00904999 10.45055938 1.06566428 14.5 4.5 C14.5 5.16 14.5 5.82 14.5 6.5 C15.16 6.5 15.82 6.5 16.5 6.5 C18.9311565 10.25370564 18.86706075 14.04811142 18.875 18.375 C18.89949219 19.06980469 18.92398438 19.76460937 18.94921875 20.48046875 C18.97850199 25.66360215 17.72511748 28.50558844 14.5 32.5 C10.91666836 35.89957104 9.54720008 36.49055998 4.5 37.5 C4.005 31.065 4.005 31.065 3.5 24.5 C5.15 23.84 6.8 23.18 8.5 22.5 C9.84404775 21.38163776 9.84404775 21.38163776 9.625 18.5 C9.84404775 15.61836224 9.84404775 15.61836224 8.5 14.5 C8.45919217 12.50041636 8.45745644 10.49954746 8.5 8.5 C7.51 9.16 6.52 9.82 5.5 10.5 C3.16015625 10.765625 3.16015625 10.765625 0.5625 10.75 C-0.29214844 10.75515625 -1.14679687 10.7603125 -2.02734375 10.765625 C-4.61974567 10.48713633 -6.26514234 9.80669172 -8.5 8.5 C-8.74900646 10.43505023 -8.97356242 12.37325934 -9.1875 14.3125 C-9.31511719 15.39144531 -9.44273438 16.47039063 -9.57421875 17.58203125 C-9.78016893 20.4851264 -9.78016893 20.4851264 -8.15625 22.3125 C-6.3479923 23.60898665 -4.52885386 24.59051379 -2.5 25.5 C-2.83 26.36625 -3.16 27.2325 -3.5 28.125 C-4.48731341 31.45718275 -4.66420974 34.05159538 -4.5 37.5 C-10.18669404 35.91301562 -14.03037213 33.96002926 -17.1171875 28.79296875 C-19.64945923 22.76272845 -19.67702056 15.45665104 -17.80859375 9.17578125 C-13.90769256 1.65144883 -7.80717943 -0.16465053 0 0 Z " fill="#FFFFFF" transform="translate(19.5,1.5)"/>
</svg>
