<?xml version="1.0" encoding="UTF-8"?>
<svg version="1.1" xmlns="http://www.w3.org/2000/svg" width="755" height="762">
<path d="M0 0 C1.47809398 0.72644448 2.95661475 1.45202118 4.43554688 2.17675781 C7.37679351 3.61845776 10.31658128 5.06306496 13.25537109 6.50976562 C18.58821695 9.1308076 23.94732483 11.6959039 29.3125 14.25 C31.14849063 15.12619077 32.9844284 16.00249229 34.8203125 16.87890625 C35.72040039 17.3083252 36.62048828 17.73774414 37.54785156 18.18017578 C42.4301354 20.51094463 47.30935279 22.84808747 52.1875 25.1875 C53.7192688 25.92190308 53.7192688 25.92190308 55.28198242 26.67114258 C61.27834931 29.55026127 67.26596367 32.44673057 73.24609375 35.359375 C75.3350899 36.37624044 77.42414196 37.39299086 79.51324463 38.40963745 C80.91829671 39.09352368 82.32320458 39.77770628 83.72796631 40.46218872 C91.22732942 44.11398899 98.74054134 47.72534819 106.32421875 51.19921875 C106.96208817 51.49197189 107.59995758 51.78472504 108.25715637 52.08634949 C111.24764452 53.45700493 114.24180792 54.81755161 117.2434082 56.16381836 C123.70093196 59.10492202 129.54156674 62.3733961 135.3125 66.5 C136.17875 67.0775 137.045 67.655 137.9375 68.25 C146.35492986 76.22440723 151.32698975 86.33518454 151.77120927 97.92520624 C151.85234254 102.27469017 151.84249894 106.6214336 151.82043457 110.97143555 C151.82504761 112.95299837 151.83140323 114.93455776 151.83934355 116.91611004 C151.85600446 122.34286962 151.84780512 127.76934695 151.83539867 133.19610739 C151.8263373 139.05577579 151.84032332 144.91539612 151.85131836 150.77505493 C151.8690965 162.24685662 151.86526669 173.71855357 151.8536678 185.19035935 C151.844631 194.51447642 151.84330494 203.83856718 151.84776306 213.16268921 C151.84822137 214.15733013 151.84822137 214.15733013 151.84868894 215.1720648 C151.84993435 217.86395142 151.85120795 220.55583802 151.852528 223.2477246 C151.86475701 248.48658483 151.85368125 273.72538799 151.83214041 298.9642394 C151.81315875 321.3749532 151.81485729 343.78557606 151.83398438 366.19628906 C151.85541472 391.38973415 151.86388965 416.58312883 151.85153532 441.77658176 C151.8502525 444.46349143 151.84900114 447.15040111 151.84776306 449.83731079 C151.84744675 450.49886986 151.84713044 451.16042894 151.84680455 451.84203526 C151.84225953 461.82109041 151.84759168 471.80009603 151.85768127 481.77914429 C151.86890439 493.12868056 151.86585449 504.47810619 151.8445583 515.8276298 C151.83405224 521.61734274 151.8299187 527.40687126 151.84315491 533.19658279 C151.85509351 538.49892697 151.8484917 543.80091614 151.8272447 549.10322821 C151.82278491 551.01896045 151.82503085 552.93472282 151.83474785 554.85043561 C151.90718308 570.32051324 149.79586949 581.42471144 139.3125 593.5 C135.00040897 597.83151486 129.7148236 600.38024813 124.28515625 603.0625 C123.59047745 603.40766159 122.89579865 603.75282318 122.18006897 604.10844421 C113.22329468 608.55029818 104.23744039 612.93313226 95.25 617.3125 C94.34797852 617.75231201 93.44595703 618.19212402 92.51660156 618.64526367 C79.69820433 624.89451592 66.86125742 631.10114179 53.98339844 637.22705078 C48.96295177 639.61979383 43.95076038 642.02974726 38.9375 644.4375 C37.89940186 644.93556152 36.86130371 645.43362305 35.79174805 645.94677734 C30.50760589 648.48247693 25.22618534 651.0236174 19.94921875 653.57421875 C9.69138613 658.5271467 -0.58583951 663.43322472 -10.9375 668.1875 C-11.84846436 668.6098291 -12.75942871 669.0321582 -13.69799805 669.46728516 C-14.54531494 669.85319824 -15.39263184 670.23911133 -16.265625 670.63671875 C-17.00200195 670.97405029 -17.73837891 671.31138184 -18.49707031 671.65893555 C-28.3298076 675.43443487 -40.32018928 674.45427323 -49.97265625 670.76171875 C-56.66895344 667.64962667 -61.89778225 663.57434717 -66.97265625 658.2578125 C-68.64261413 656.54601057 -70.37123447 654.99206705 -72.1875 653.4375 C-76.2926024 649.90165985 -80.2374991 646.20669323 -84.1875 642.5 C-88.59822454 638.36367042 -93.02619417 634.27364589 -97.609375 630.328125 C-101.05573637 627.29636349 -104.40597844 624.16041074 -107.7722168 621.0402832 C-111.03284892 618.0204478 -114.31256844 615.02568013 -117.625 612.0625 C-121.73421769 608.38230341 -125.77815187 604.63669947 -129.8125 600.875 C-133.37499875 597.55377101 -136.93268155 594.23998538 -140.625 591.0625 C-145.27803488 587.0526492 -149.71952762 582.81460403 -154.19897461 578.61352539 C-157.32048095 575.69137183 -160.44446182 572.78787492 -163.6875 570 C-167.62707646 566.61334656 -171.3988489 563.05318261 -175.1875 559.5 C-179.59836182 555.36381116 -184.02618719 551.2736519 -188.609375 547.328125 C-192.05573637 544.29636349 -195.40597844 541.16041074 -198.7722168 538.0402832 C-202.03284892 535.0204478 -205.31256844 532.02568013 -208.625 529.0625 C-212.73421769 525.38230341 -216.77815187 521.63669947 -220.8125 517.875 C-224.37499875 514.55377101 -227.93268155 511.23998538 -231.625 508.0625 C-236.27803488 504.0526492 -240.71952762 499.81460403 -245.19897461 495.61352539 C-248.32048095 492.69137183 -251.44446182 489.78787492 -254.6875 487 C-259.3232496 483.01488192 -263.74115889 478.79433544 -268.19921875 474.61328125 C-271.32065322 471.69121984 -274.44454928 468.78779975 -277.6875 466 C-281.62707646 462.61334656 -285.3988489 459.05318261 -289.1875 455.5 C-293.59836182 451.36381116 -298.02618719 447.2736519 -302.609375 443.328125 C-305.472645 440.80930853 -308.2652997 438.21675394 -311.0625 435.625 C-322.16565352 425.32457087 -322.16565352 425.32457087 -333.6875 415.5 C-338.72034657 418.22080284 -343.0453138 421.22565904 -347.4375 424.875 C-353.17024815 429.55139124 -359.0222342 434.01665753 -365 438.375 C-371.37234775 443.02649888 -377.66330874 447.76087529 -383.875 452.625 C-390.01076441 457.42966945 -396.19166062 462.16124691 -402.43823242 466.82080078 C-408.04969893 471.01027301 -413.62136961 475.25052939 -419.1875 479.5 C-435.7639506 492.14460653 -435.7639506 492.14460653 -444.01708984 498.26171875 C-445.55212617 499.39964688 -447.08291404 500.54330021 -448.61328125 501.6875 C-457.04610793 507.82977133 -464.07724494 510.80223493 -474.6875 509.5 C-482.21919977 507.63098145 -487.19650225 503.79189669 -492.6875 498.5 C-494.2669635 497.07902008 -495.85053687 495.66259935 -497.4375 494.25 C-501.71862547 490.38910771 -505.9711672 486.49789708 -510.21459961 482.59570312 C-513.45316992 479.62053723 -516.7185228 476.67793414 -520 473.75 C-521.56356526 472.33450914 -523.12614955 470.91793351 -524.6875 469.5 C-525.35910156 468.90703125 -526.03070312 468.3140625 -526.72265625 467.703125 C-533.06489832 461.83217481 -535.77530582 456.29471182 -536.15771484 447.5637207 C-536.25251876 440.79611992 -535.85385507 435.05969348 -531.6875 429.5 C-530.945 428.489375 -530.2025 427.47875 -529.4375 426.4375 C-526.93244743 423.60994066 -524.12992255 421.1962078 -521.2578125 418.75 C-517.82582159 415.745704 -514.51166277 412.62262419 -511.1875 409.5 C-506.77701644 405.36342615 -502.34879299 401.27363483 -497.765625 397.328125 C-494.32003872 394.29704534 -490.9706191 391.16173548 -487.60498047 388.04248047 C-484.32194709 385.00214317 -481.02056497 381.98564451 -477.6875 379 C-473.86544576 375.5737572 -470.08154409 372.10924226 -466.3125 368.625 C-465.49881958 367.87428223 -465.49881958 367.87428223 -464.66870117 367.10839844 C-461.85652552 364.5122878 -459.05319829 361.90742084 -456.26171875 359.2890625 C-455.17450533 358.27601359 -454.08726672 357.26299171 -453 356.25 C-452.24227295 355.53287842 -452.24227295 355.53287842 -451.46923828 354.80126953 C-447.91336583 351.5 -447.91336583 351.5 -445.6875 351.5 C-445.6875 350.84 -445.6875 350.18 -445.6875 349.5 C-444.32421875 348.125 -444.32421875 348.125 -442.375 346.5 C-438.74782205 343.41982914 -435.20041172 340.27130551 -431.6875 337.0625 C-430.73875 336.19753906 -429.79 335.33257812 -428.8125 334.44140625 C-428.11125 333.80074219 -427.41 333.16007812 -426.6875 332.5 C-428.02553458 329.49125902 -429.46334376 327.51614357 -431.8828125 325.29296875 C-432.82640625 324.41898437 -432.82640625 324.41898437 -433.7890625 323.52734375 C-434.45679688 322.92019531 -435.12453125 322.31304687 -435.8125 321.6875 C-436.49828125 321.05585938 -437.1840625 320.42421875 -437.890625 319.7734375 C-441.70083606 316.27470758 -445.55496691 312.8345372 -449.4765625 309.4609375 C-453.40823387 305.97383674 -457.21768565 302.35390504 -461.05200195 298.76049805 C-465.40209335 294.68787604 -469.79612159 290.671464 -474.23828125 286.69921875 C-477.02979483 284.19264435 -479.79857525 281.66188649 -482.5625 279.125 C-483.31478882 278.43458618 -483.31478882 278.43458618 -484.08227539 277.73022461 C-486.13153681 275.8487045 -488.18000876 273.96632592 -490.22851562 272.08398438 C-496.16097489 266.63396144 -502.11179436 261.20660055 -508.109375 255.828125 C-510.0033034 254.11785026 -511.8883641 252.40025771 -513.765625 250.671875 C-514.29285156 250.18654297 -514.82007813 249.70121094 -515.36328125 249.20117188 C-516.8527578 247.82811843 -518.34049437 246.45317818 -519.828125 245.078125 C-521.81644224 243.28537994 -523.80161715 241.57580541 -525.875 239.890625 C-528.12305718 237.97977639 -529.78508328 236.39939963 -531.4375 234 C-531.82421875 233.4534375 -532.2109375 232.906875 -532.609375 232.34375 C-535.42165489 227.53434381 -536.05205554 223.26467385 -536.0625 217.75 C-536.08699219 217.08484375 -536.11148438 216.4196875 -536.13671875 215.734375 C-536.17950183 208.31864152 -533.55360855 202.22359537 -528.515625 196.8046875 C-527.33634346 195.64761311 -526.14319536 194.50452414 -524.9375 193.375 C-523.9949939 192.46355225 -523.9949939 192.46355225 -523.03344727 191.53369141 C-519.38208571 188.02532617 -515.66333762 184.60344047 -511.80078125 181.328125 C-508.90922602 178.82674265 -506.11571426 176.22453442 -503.3125 173.625 C-502.18621155 172.58592272 -501.05990958 171.5468601 -499.93359375 170.5078125 C-497.91241909 168.64055852 -495.90734214 166.76044107 -493.91015625 164.8671875 C-486.62335594 158.06317982 -479.77669738 153.47040051 -469.5625 153.1875 C-468.25925781 153.13142578 -468.25925781 153.13142578 -466.9296875 153.07421875 C-457.7332818 154.2819395 -450.89551714 159.15233761 -443.8125 164.8125 C-441.97203968 166.24957628 -440.13087575 167.68575185 -438.2890625 169.12109375 C-437.36125977 169.84925293 -436.43345703 170.57741211 -435.47753906 171.32763672 C-431.09475994 174.74012959 -426.64148713 178.05634292 -422.1875 181.375 C-415.82061914 186.13717013 -409.48775959 190.93672405 -403.1953125 195.796875 C-390.76549896 205.3900091 -378.23968026 214.85727728 -365.66601562 224.26074219 C-360.95820397 227.78501526 -356.27494804 231.33726696 -351.625 234.9375 C-346.05962444 239.24129431 -340.4038279 243.39890704 -334.6875 247.5 C-330.04019689 244.71161813 -326.51403585 241.43389743 -322.73828125 237.55859375 C-320.26996964 235.08087905 -317.66129836 232.81905438 -315.01171875 230.5390625 C-312.06339578 227.95246655 -309.18835394 225.29163286 -306.3125 222.625 C-301.64556646 218.29982671 -296.94468558 214.01734733 -292.20703125 209.76953125 C-287.33539755 205.38128446 -282.51537676 200.93626191 -277.6875 196.5 C-266.41089154 186.13809743 -266.41089154 186.13809743 -260.75 181.0625 C-256.81923139 177.53683475 -252.93531509 173.96393802 -249.0625 170.375 C-245.68429451 167.24470066 -242.30332918 164.1301486 -238.8125 161.125 C-234.18943018 157.13145458 -229.76168381 152.92635806 -225.31689453 148.73681641 C-222.16573046 145.77547146 -218.98432011 142.86630061 -215.71875 140.03125 C-211.60744636 136.45828389 -207.64144005 132.74543149 -203.6875 129 C-199.06594327 124.62215818 -194.39204192 120.33477707 -189.58496094 116.16113281 C-186.77699501 113.70289811 -184.04363465 111.16789855 -181.3125 108.625 C-177.46226645 105.05486427 -173.59870526 101.50352262 -169.6875 98 C-165.82087485 94.53510214 -161.99734141 91.02697616 -158.1875 87.5 C-153.58978103 83.24364299 -148.95602991 79.03207077 -144.2890625 74.8515625 C-140.66393385 71.57479456 -137.0802719 68.25370241 -133.50390625 64.92382812 C-130.63992999 62.26649319 -127.73927846 59.6630238 -124.7890625 57.1015625 C-120.65698739 53.50240369 -116.6653112 49.76804381 -112.6875 46 C-108.06594327 41.62215818 -103.39204192 37.33477707 -98.58496094 33.16113281 C-95.77699501 30.70289811 -93.04363465 28.16789855 -90.3125 25.625 C-85.67410098 21.32403648 -81.00372854 17.06430109 -76.28125 12.85546875 C-74.33667618 11.089538 -72.42720935 9.30505239 -70.53125 7.48828125 C-47.77304492 -14.21949367 -27.25383209 -13.52768716 0 0 Z M-27.4375 181 C-40.31107426 191.20814301 -53.43927506 201.09185844 -66.59814453 210.92822266 C-72.06981876 215.02340956 -77.50539853 219.16501712 -82.9375 223.3125 C-89.99530642 228.70123058 -97.07724295 234.05566981 -104.1875 239.375 C-110.54815081 244.13465407 -116.87709107 248.92851122 -123.1640625 253.78515625 C-134.66606454 262.66251747 -146.24565479 271.43991819 -157.88134766 280.14111328 C-164.74484438 285.27964338 -171.54666501 290.49795902 -178.35253906 295.71240234 C-189.0596338 303.90953196 -199.77983684 312.0899339 -210.5625 320.1875 C-211.49751343 320.89048218 -211.49751343 320.89048218 -212.45141602 321.60766602 C-213.04237061 322.05037842 -213.6333252 322.49309082 -214.2421875 322.94921875 C-214.80518555 323.37122559 -215.36818359 323.79323242 -215.94824219 324.22802734 C-217.17940724 325.12841616 -218.42669252 326.00695233 -219.68457031 326.86962891 C-221.38328276 328.03573753 -223.03964993 329.26305883 -224.6875 330.5 C-224.6875 331.16 -224.6875 331.82 -224.6875 332.5 C-222.39128382 334.37483608 -220.08347909 336.13522344 -217.6875 337.875 C-216.21213387 338.96339839 -214.73687647 340.05194416 -213.26171875 341.140625 C-212.50165527 341.69814453 -211.7415918 342.25566406 -210.95849609 342.83007812 C-207.45547241 345.4059416 -203.97720572 348.01444443 -200.5 350.625 C-199.8299292 351.12725098 -199.1598584 351.62950195 -198.46948242 352.14697266 C-193.40469178 355.94788327 -188.38011976 359.79888513 -183.3671875 363.66796875 C-172.29072293 372.20646997 -161.15683933 380.67219362 -149.953125 389.04296875 C-145.42653575 392.43791069 -140.93556783 395.87993192 -136.4375 399.3125 C-130.20631884 404.06718125 -123.96559147 408.80741596 -117.6875 413.5 C-106.43843576 421.9111895 -95.28238331 430.44583622 -84.1328125 438.98828125 C-77.42421611 444.12791331 -70.70556188 449.25132938 -63.9375 454.3125 C-57.60048574 459.05133231 -51.29386431 463.8290082 -45 468.625 C-44.10861328 469.30409424 -43.21722656 469.98318848 -42.29882812 470.68286133 C-38.3551663 473.69059675 -34.4163608 476.70400438 -30.49609375 479.7421875 C-29.88531982 480.2151123 -29.2745459 480.68803711 -28.64526367 481.17529297 C-27.05851802 482.4061267 -25.47445895 483.64042174 -23.890625 484.875 C-22.00963643 486.59893139 -22.00963643 486.59893139 -20.6875 486.5 C-20.6875 384.2 -20.6875 281.9 -20.6875 176.5 C-23.01544078 176.5 -25.62260949 179.54743021 -27.4375 181 Z " fill="#0186D0" transform="translate(569.6875,49.5)"/>
<path d="M0 0 C1.24007812 -0.02578125 2.48015625 -0.0515625 3.7578125 -0.078125 C14.53202119 0.42403499 24.10433215 6.05535246 33.5625 10.75 C35.04059398 11.47644448 36.51911475 12.20202118 37.99804688 12.92675781 C40.93929351 14.36845776 43.87908128 15.81306496 46.81787109 17.25976562 C52.15071695 19.8808076 57.50982483 22.4459039 62.875 25 C64.71099063 25.87619077 66.5469284 26.75249229 68.3828125 27.62890625 C69.28290039 28.0583252 70.18298828 28.48774414 71.11035156 28.93017578 C75.9926354 31.26094463 80.87185279 33.59808747 85.75 35.9375 C87.2817688 36.67190308 87.2817688 36.67190308 88.84448242 37.42114258 C94.84084931 40.30026127 100.82846367 43.19673057 106.80859375 46.109375 C108.8975899 47.12624044 110.98664196 48.14299086 113.07574463 49.15963745 C114.48079671 49.84352368 115.88570458 50.52770628 117.29046631 51.21218872 C124.78982942 54.86398899 132.30304134 58.47534819 139.88671875 61.94921875 C140.84352287 62.38834846 140.84352287 62.38834846 141.81965637 62.83634949 C144.81014452 64.20700493 147.80430792 65.56755161 150.8059082 66.91381836 C157.26343196 69.85492202 163.10406674 73.1233961 168.875 77.25 C169.74125 77.8275 170.6075 78.405 171.5 79 C179.91742986 86.97440723 184.88948975 97.08518454 185.33370927 108.67520624 C185.41484254 113.02469017 185.40499894 117.3714336 185.38293457 121.72143555 C185.38754761 123.70299837 185.39390323 125.68455776 185.40184355 127.66611004 C185.41850446 133.09286962 185.41030512 138.51934695 185.39789867 143.94610739 C185.3888373 149.80577579 185.40282332 155.66539612 185.41381836 161.52505493 C185.4315965 172.99685662 185.42776669 184.46855357 185.4161678 195.94035935 C185.407131 205.26447642 185.40580494 214.58856718 185.41026306 223.91268921 C185.4105686 224.57578316 185.41087414 225.2388771 185.41118894 225.9220648 C185.41243435 228.61395142 185.41370795 231.30583802 185.415028 233.9977246 C185.42725701 259.23658483 185.41618125 284.47538799 185.39464041 309.7142394 C185.37565875 332.1249532 185.37735729 354.53557606 185.39648438 376.94628906 C185.41791472 402.13973415 185.42638965 427.33312883 185.41403532 452.52658176 C185.4127525 455.21349143 185.41150114 457.90040111 185.41026306 460.58731079 C185.40994675 461.24886986 185.40963044 461.91042894 185.40930455 462.59203526 C185.40475953 472.57109041 185.41009168 482.55009603 185.42018127 492.52914429 C185.43140439 503.87868056 185.42835449 515.22810619 185.4070583 526.5776298 C185.39655224 532.36734274 185.3924187 538.15687126 185.40565491 543.94658279 C185.41759351 549.24892697 185.4109917 554.55091614 185.3897447 559.85322821 C185.38528491 561.76896045 185.38753085 563.68472282 185.39724785 565.60043561 C185.46968308 581.07051324 183.35836949 592.17471144 172.875 604.25 C168.56290897 608.58151486 163.2773236 611.13024813 157.84765625 613.8125 C157.15297745 614.15766159 156.45829865 614.50282318 155.74256897 614.85844421 C146.78579468 619.30029818 137.79994039 623.68313226 128.8125 628.0625 C127.91047852 628.50231201 127.00845703 628.94212402 126.07910156 629.39526367 C113.26070433 635.64451592 100.42375742 641.85114179 87.54589844 647.97705078 C82.52545177 650.36979383 77.51326038 652.77974726 72.5 655.1875 C71.46190186 655.68556152 70.42380371 656.18362305 69.35424805 656.69677734 C64.07010589 659.23247693 58.78868534 661.7736174 53.51171875 664.32421875 C43.25388613 669.2771467 32.97666049 674.18322472 22.625 678.9375 C21.71403564 679.3598291 20.80307129 679.7821582 19.86450195 680.21728516 C19.01718506 680.60319824 18.16986816 680.98911133 17.296875 681.38671875 C16.56049805 681.72405029 15.82412109 682.06138184 15.06542969 682.40893555 C4.86154127 686.32694665 -6.81280154 684.97104397 -16.83203125 681.3203125 C-19.125 680.25 -19.125 680.25 -21.125 678.25 C-19.89136719 678.31960938 -19.89136719 678.31960938 -18.6328125 678.390625 C-9.48578406 678.68637188 -3.12800796 677.25180478 4.6875 672.5625 C11.06125519 665.82453023 12.61053719 659.28064202 12.50141239 650.21665096 C12.50838 649.1331691 12.51534761 648.04968723 12.52252635 646.93337259 C12.5397763 643.30140691 12.52140022 639.67050717 12.50318909 636.03855896 C12.50823403 633.40896468 12.51525618 630.77944292 12.52468723 628.14986759 C12.54118931 622.43205868 12.53914129 616.71449079 12.52486038 610.99667931 C12.50368252 602.49416928 12.51113323 593.99185129 12.5242356 585.48933363 C12.54669129 570.30382266 12.54069742 555.118423 12.5227995 539.93291192 C12.50723446 526.64448938 12.50137895 513.35610587 12.5051403 500.06767464 C12.50537711 499.18635139 12.50561391 498.30502815 12.50585788 497.39699814 C12.5068328 493.81946445 12.50785361 490.24193077 12.50894299 486.66439711 C12.51902659 453.10294383 12.50075941 419.54155911 12.46922263 385.98012195 C12.44135943 356.15835456 12.43639944 326.33666871 12.45141602 296.51489258 C12.45523841 288.87799554 12.45903319 281.24109849 12.4625864 273.60420132 C12.46302422 272.66402842 12.46346203 271.72385551 12.46391311 270.75519253 C12.47515064 245.84034816 12.46780575 220.92550979 12.45470566 196.01066738 C12.45331708 193.33009647 12.45193637 190.64952555 12.45056724 187.96895463 C12.44965785 186.19071641 12.44873518 184.4124782 12.44779913 182.63424 C12.44100106 169.35300386 12.44366548 156.07179126 12.45074654 142.79055595 C12.45870906 127.69108234 12.45216117 112.59169082 12.4265715 97.49223524 C12.4126379 89.03992532 12.40967549 80.58778065 12.4225062 72.13546804 C12.42996052 66.49148433 12.42289258 60.84763994 12.40394809 55.2036834 C12.39355194 51.98671813 12.39164301 48.77015219 12.40292663 45.55317991 C12.41407391 42.08762641 12.40073761 38.62300414 12.38115788 35.1575079 C12.39023669 34.15912859 12.39931551 33.16074928 12.40866944 32.13211605 C12.33038344 25.05259148 10.83579769 19.69074435 6.1640625 14.26171875 C5.61492188 13.82472656 5.06578125 13.38773438 4.5 12.9375 C3.95601562 12.48761719 3.41203125 12.03773437 2.8515625 11.57421875 C-2.20794443 8.18454908 -6.00102812 6.85020654 -12.125 6.9375 C-13.8884375 6.94330078 -13.8884375 6.94330078 -15.6875 6.94921875 C-19.12775637 7.25024118 -21.91043405 8.02003651 -25.125 9.25 C-19.36404436 1.91787464 -8.78835467 0.10827542 0 0 Z " fill="#23A8F1" transform="translate(536.125,38.75)"/>
<path d="M0 0 C6.0108936 3.94745251 10.77831577 9.13772321 13.0625 16 C13.32256222 19.13128662 13.32256222 19.13128662 13.33665466 22.71777344 C13.34189134 23.38005322 13.34712802 24.04233299 13.35252339 24.72468185 C13.36748451 26.93630793 13.36822766 29.14770186 13.36889648 31.359375 C13.37652038 32.94804269 13.38494828 34.5367067 13.39411926 36.12536621 C13.41604328 40.43519291 13.42485987 44.74494867 13.42994571 49.05482483 C13.43359053 51.747618 13.43983112 54.44039262 13.4469471 57.13317871 C13.47143038 66.52759619 13.48449191 75.9219585 13.48803711 85.31640625 C13.4916757 94.07399333 13.52159695 102.83123067 13.56344169 111.58871078 C13.59811574 119.10900958 13.61358502 126.62919225 13.61428314 134.14957047 C13.61507668 138.64067224 13.62385111 143.13141734 13.65228081 147.62243652 C13.67841357 151.84479255 13.68069391 156.06649483 13.66462517 160.28889465 C13.66280707 161.83809329 13.66953406 163.38732913 13.68544388 164.93644714 C13.70585104 167.05248332 13.69538903 169.16622018 13.67723083 171.28222656 C13.67924216 172.46576721 13.68125349 173.64930786 13.68332577 174.86871338 C12.88081896 178.91635278 11.16292378 180.37558483 8.0625 183 C7.52028809 183.47751709 6.97807617 183.95503418 6.41943359 184.44702148 C5.93812988 184.83446533 5.45682617 185.22190918 4.9609375 185.62109375 C4.39810059 186.07436035 3.83526367 186.52762695 3.25537109 186.99462891 C2.65547363 187.47077637 2.05557617 187.94692383 1.4375 188.4375 C0.79506348 188.94974121 0.15262695 189.46198242 -0.50927734 189.98974609 C-6.57462536 194.78577039 -12.79233383 199.36669634 -19.03222656 203.93188477 C-24.54804479 207.96751014 -29.99069377 212.07699797 -35.39453125 216.26171875 C-47.82889772 225.89079305 -60.3896353 235.35597973 -72.98095703 244.77832031 C-78.49184756 248.90574656 -83.96527856 253.07600567 -89.4140625 257.28515625 C-100.91606454 266.16251747 -112.49565479 274.93991819 -124.13134766 283.64111328 C-130.99484438 288.77964338 -137.79666501 293.99795902 -144.60253906 299.21240234 C-155.98643522 307.92767709 -167.38131846 316.62826924 -178.87719727 325.19555664 C-179.47459717 325.6414917 -180.07199707 326.08742676 -180.6875 326.546875 C-181.24566406 326.96259766 -181.80382812 327.37832031 -182.37890625 327.80664062 C-183.82838028 328.91645094 -185.22924345 330.08896977 -186.625 331.265625 C-188.93358959 332.99706719 -190.12130201 333.6417628 -192.9375 334 C-195.5063656 332.38493622 -197.76646865 330.75953663 -200.125 328.875 C-200.82987549 328.32875977 -201.53475098 327.78251953 -202.26098633 327.21972656 C-203.75077214 326.06453712 -205.23661731 324.90425013 -206.71875 323.73925781 C-209.48254213 321.57274646 -212.27379213 319.44386155 -215.06787109 317.31665039 C-217.17594607 315.71120093 -219.2798218 314.10038376 -221.3828125 312.48828125 C-233.25709829 303.39058274 -245.1487382 294.31665423 -257.13012695 285.36035156 C-261.84071566 281.83470058 -266.51916034 278.26885545 -271.1875 274.6875 C-280.71246081 267.38058872 -290.32206552 260.18721876 -299.9375 253 C-299.1971772 249.61183263 -298.54209655 248.31104052 -295.8125 246.125 C-291.54046068 242.56239681 -287.48625751 238.81118248 -283.4375 235 C-279.02749887 230.86293753 -274.59876717 226.77361261 -270.015625 222.828125 C-266.57003872 219.79704534 -263.2206191 216.66173548 -259.85498047 213.54248047 C-256.57194709 210.50214317 -253.27056497 207.48564451 -249.9375 204.5 C-246.07087485 201.03510214 -242.24734141 197.52697616 -238.4375 194 C-233.83978103 189.74364299 -229.20602991 185.53207077 -224.5390625 181.3515625 C-221.44040734 178.550676 -218.37598818 175.71422368 -215.3125 172.875 C-211.93431287 169.74468215 -208.55332816 166.63014772 -205.0625 163.625 C-200.43943018 159.63145458 -196.01168381 155.42635806 -191.56689453 151.23681641 C-188.41573046 148.27547146 -185.23432011 145.36630061 -181.96875 142.53125 C-177.85744636 138.95828389 -173.89144005 135.24543149 -169.9375 131.5 C-165.31594327 127.12215818 -160.64204192 122.83477707 -155.83496094 118.66113281 C-153.02699501 116.20289811 -150.29363465 113.66789855 -147.5625 111.125 C-143.71226645 107.55486427 -139.84870526 104.00352262 -135.9375 100.5 C-132.07087485 97.03510214 -128.24734141 93.52697616 -124.4375 90 C-119.83978103 85.74364299 -115.20602991 81.53207077 -110.5390625 77.3515625 C-106.91393385 74.07479456 -103.3302719 70.75370241 -99.75390625 67.42382812 C-96.88992999 64.76649319 -93.98927846 62.1630238 -91.0390625 59.6015625 C-86.90698739 56.00240369 -82.9153112 52.26804381 -78.9375 48.5 C-74.31594327 44.12215818 -69.64204192 39.83477707 -64.83496094 35.66113281 C-62.02699501 33.20289811 -59.29363465 30.66789855 -56.5625 28.125 C-51.92742629 23.82711987 -47.26283997 19.56781046 -42.5390625 15.3671875 C-40.56082475 13.56716937 -38.6292828 11.74483527 -36.7109375 9.8828125 C-36.14761719 9.34333984 -35.58429688 8.80386719 -35.00390625 8.24804688 C-33.91101399 7.19932463 -32.82695634 6.14128169 -31.75390625 5.07226562 C-23.49075225 -2.8038799 -10.42316788 -5.2829755 0 0 Z " fill="#0176B6" transform="translate(535.9375,47)"/>
<path d="M0 0 C3.39344442 1.48848812 5.78229967 3.4326862 8.5 5.9375 C9.37914062 6.74316406 10.25828125 7.54882812 11.1640625 8.37890625 C12.09992188 9.24386719 13.03578125 10.10882813 14 11 C15.45895903 12.33508515 16.91792557 13.67016225 18.37744141 15.00463867 C21.43630879 17.80369681 24.48796621 20.61061534 27.54101562 23.41601562 C33.47889501 28.87101791 39.43642391 34.30191889 45.4375 39.6875 C48.82321544 42.74290174 52.1808191 45.82856984 55.5390625 48.9140625 C59.47829571 52.53007657 63.4494338 56.10897759 67.4296875 59.6796875 C70.85905574 62.77550017 74.26001853 65.90182862 77.65332031 69.03710938 C81.23118822 72.33220654 84.89808456 75.49437769 88.671875 78.5625 C90 80 90 80 90 83 C88.11328125 84.69921875 88.11328125 84.69921875 85.3125 86.6875 C84.20852309 87.48544249 83.10575533 88.28505934 82.00390625 89.0859375 C81.37629395 89.53936523 80.74868164 89.99279297 80.10205078 90.45996094 C75.93574256 93.51235028 71.85080965 96.67301982 67.75 99.8125 C61.51962934 104.56822671 55.2781736 109.30755066 49 114 C42.88870221 118.56785142 36.81423617 123.18237374 30.75 127.8125 C22.85395073 133.84124032 14.92167946 139.81919083 6.96679688 145.77001953 C2.37029255 149.21190395 -2.20611925 152.67648187 -6.75 156.1875 C-7.75160156 156.95707031 -8.75320312 157.72664062 -9.78515625 158.51953125 C-11.50906134 159.84523548 -13.2265819 161.17791848 -14.93701172 162.52099609 C-34.57910773 177.93377667 -34.57910773 177.93377667 -47.26953125 177.37890625 C-56.03134321 176.16303249 -61.78356732 171.99102768 -68 166 C-69.5794635 164.57902008 -71.16303687 163.16259935 -72.75 161.75 C-77.03112547 157.88910771 -81.2836672 153.99789708 -85.52709961 150.09570312 C-88.76566992 147.12053723 -92.0310228 144.17793414 -95.3125 141.25 C-96.87606526 139.83450914 -98.43864955 138.41793351 -100 137 C-100.67160156 136.40703125 -101.34320313 135.8140625 -102.03515625 135.203125 C-108.37739832 129.33217481 -111.08780582 123.79471182 -111.47021484 115.0637207 C-111.56501876 108.29611992 -111.16635507 102.55969348 -107 97 C-106.2575 95.989375 -105.515 94.97875 -104.75 93.9375 C-102.24494743 91.10994066 -99.44242255 88.6962078 -96.5703125 86.25 C-93.13832159 83.245704 -89.82416277 80.12262419 -86.5 77 C-82.08951644 72.86342615 -77.66129299 68.77363483 -73.078125 64.828125 C-69.63253872 61.79704534 -66.2831191 58.66173548 -62.91748047 55.54248047 C-59.63444709 52.50214317 -56.33306497 49.48564451 -53 46.5 C-49.17794576 43.0737572 -45.39404409 39.60924226 -41.625 36.125 C-41.08254639 35.62452148 -40.54009277 35.12404297 -39.98120117 34.60839844 C-37.16902552 32.0122878 -34.36569829 29.40742084 -31.57421875 26.7890625 C-30.48700533 25.77601359 -29.39976672 24.76299171 -28.3125 23.75 C-27.80734863 23.27191895 -27.30219727 22.79383789 -26.78173828 22.30126953 C-23.22586583 19 -23.22586583 19 -21 19 C-21 18.34 -21 17.68 -21 17 C-19.4609375 15.44921875 -19.4609375 15.44921875 -17.375 13.6875 C-16.27865234 12.75744141 -16.27865234 12.75744141 -15.16015625 11.80859375 C-14.44730469 11.21175781 -13.73445313 10.61492187 -13 10 C-12.44183594 9.51660156 -11.88367188 9.03320312 -11.30859375 8.53515625 C-8.36119803 6.00332024 -5.35016203 3.95426118 -2 2 C-1.34 1.34 -0.68 0.68 0 0 Z " fill="#026DAE" transform="translate(145,382)"/>
<path d="M0 0 C0.66 0.33 1.32 0.66 2 1 C-3.51492321 6.60616275 -9.01470808 12.15897574 -14.9921875 17.27734375 C-17.25261994 19.21674201 -19.47225995 21.19663314 -21.6875 23.1875 C-22.51765625 23.93257812 -23.3478125 24.67765625 -24.203125 25.4453125 C-26.29762218 27.35844261 -28.36613954 29.2882098 -30.421875 31.2421875 C-31.00493408 31.79237549 -31.58799316 32.34256348 -32.1887207 32.90942383 C-33.33901938 33.99677163 -34.4835855 35.0902217 -35.62182617 36.19018555 C-39.66460375 40 -39.66460375 40 -43 40 C-31.22316691 28.04651442 -31.22316691 28.04651442 -25.18359375 22.8984375 C-22.27341971 20.36830408 -19.45194953 17.74740518 -16.625 15.125 C-11.12940184 10.0307388 -5.58693809 4.99419297 0 0 Z " fill="#63B9E4" transform="translate(83,208)"/>
<path d="M0 0 C0 3 0 3 -1.46875 4.796875 C-2.1390625 5.44140625 -2.809375 6.0859375 -3.5 6.75 C-4.24121094 7.46414062 -4.98242188 8.17828125 -5.74609375 8.9140625 C-8.28587491 11.26457054 -10.87933344 13.53805408 -13.50390625 15.79296875 C-19.45874491 21.05820168 -25.20654928 26.55845615 -31 32 C-31.66 31.67 -32.32 31.34 -33 31 C-27.56521893 25.47530527 -22.15140496 20.00049505 -16.25390625 14.96484375 C-13.13409166 12.24514403 -10.100355 9.43561387 -7.0625 6.625 C-6.48193848 6.08818604 -5.90137695 5.55137207 -5.30322266 4.99829102 C-2.61946044 2.5328143 -2.61946044 2.5328143 0 0 Z " fill="#76B6D9" transform="translate(385,161)"/>
<path d="M0 0 C0.66 0.33 1.32 0.66 2 1 C-0.20404621 3.23343953 -2.41400815 5.46093778 -4.625 7.6875 C-5.24246094 8.31333984 -5.85992187 8.93917969 -6.49609375 9.58398438 C-10.17684953 13.28411256 -13.93331224 16.72788046 -18 20 C-18.66 19.67 -19.32 19.34 -20 19 C-15.78781944 14.66935186 -11.44298473 10.5882631 -6.8671875 6.64453125 C-4.46487962 4.52869105 -2.22791166 2.2975339 0 0 Z " fill="#6AB1D7" transform="translate(454,98)"/>
<path d="M0 0 C0.66 0.33 1.32 0.66 2 1 C-10.48519362 13.66970387 -10.48519362 13.66970387 -17 19 C-17.66 18.67 -18.32 18.34 -19 18 C-14.03777812 12.9343985 -9.02135767 8.0182511 -3.62890625 3.41015625 C-2.37392427 2.32370902 -1.17374345 1.17374345 0 0 Z " fill="#63A5CE" transform="translate(122,401)"/>
<path d="M0 0 C0.66 0.33 1.32 0.66 2 1 C-2.95 5.95 -7.9 10.9 -13 16 C-13.66 15.67 -14.32 15.34 -15 15 C-10 10 -5 5 0 0 Z " fill="#63A5CE" transform="translate(55,462)"/>
<path d="M0 0 C0.66 0.33 1.32 0.66 2 1 C-2.95 5.62 -7.9 10.24 -13 15 C-13.66 14.67 -14.32 14.34 -15 14 C-13.06555623 12.03856399 -11.12763179 10.08079606 -9.1875 8.125 C-8.64029297 7.56941406 -8.09308594 7.01382813 -7.52929688 6.44140625 C-6.99755859 5.90644531 -6.46582031 5.37148437 -5.91796875 4.8203125 C-5.18743286 4.08192139 -5.18743286 4.08192139 -4.44213867 3.32861328 C-3 2 -3 2 0 0 Z " fill="#54B3E2" transform="translate(55,234)"/>
<path d="M0 0 C0.66 0.33 1.32 0.66 2 1 C-4.435 6.94 -4.435 6.94 -11 13 C-11.66 12.67 -12.32 12.34 -13 12 C-11.21135158 10.18443212 -9.41928379 8.37248378 -7.625 6.5625 C-7.11710937 6.04623047 -6.60921875 5.52996094 -6.0859375 4.99804688 C-2.2265625 1.11328125 -2.2265625 1.11328125 0 0 Z " fill="#60AAD3" transform="translate(365,180)"/>
<path d="M0 0 C3.3 0.33 6.6 0.66 10 1 C10 1.99 10 2.98 10 4 C5.38308839 3.47535095 3.90012114 2.92509086 0 0 Z " fill="#55B3F2" transform="translate(515,717)"/>
</svg>
