<?xml version="1.0" encoding="UTF-8"?>
<svg version="1.1" xmlns="http://www.w3.org/2000/svg" width="72" height="72">
<path d="M0 0 C1.32685318 -0.01441132 1.32685318 -0.01441132 2.68051147 -0.02911377 C4.11023788 -0.03548859 4.11023788 -0.03548859 5.56884766 -0.04199219 C7.04292587 -0.0505423 7.04292587 -0.0505423 8.54678345 -0.05926514 C10.62639286 -0.06871237 12.70601723 -0.07524802 14.78564453 -0.07910156 C17.96364497 -0.08880834 21.14099898 -0.11983505 24.31884766 -0.15136719 C26.33967715 -0.1578973 28.36051127 -0.16314774 30.38134766 -0.16699219 C31.33045013 -0.17933899 32.27955261 -0.19168579 33.25741577 -0.20440674 C38.69272921 -0.18609671 42.56287234 0.11609499 46.60791016 4.16113281 C46.72197583 5.70467974 46.76747942 7.25336774 46.78491211 8.80102539 C46.80416496 10.28310234 46.80416496 10.28310234 46.82380676 11.79512024 C46.8311937 12.8710997 46.83858063 13.94707916 46.84619141 15.05566406 C46.85426315 16.15456467 46.8623349 17.25346527 46.87065125 18.38566589 C46.88451155 20.71681124 46.89522495 23.04797706 46.90307617 25.37915039 C46.92028724 28.94814462 46.96415691 32.51621252 47.00830078 36.08496094 C47.01842722 38.34602181 47.02694348 40.60709058 47.03369141 42.86816406 C47.05119949 43.93807083 47.06870758 45.0079776 47.08674622 46.11030579 C47.06577904 53.25931728 47.06577904 53.25931728 45.25097656 56.83374023 C40.93372356 59.00193759 36.65596095 58.73042975 31.89306641 58.69238281 C30.32122841 58.69812317 30.32122841 58.69812317 28.71763611 58.70397949 C26.50274698 58.70669999 24.2878258 58.69932923 22.07299805 58.68261719 C18.68611794 58.66123199 15.3013644 58.68240422 11.91455078 58.70800781 C9.76155131 58.70536414 7.60855317 58.70023835 5.45556641 58.69238281 C3.93818626 58.7045282 3.93818626 58.7045282 2.39015198 58.71691895 C-1.69195423 58.66260914 -4.75139618 58.43279888 -8.53295898 56.8293457 C-11.55564728 52.49120251 -11.06535753 48.09713743 -10.98583984 42.93847656 C-10.98588013 41.84144913 -10.98592041 40.74442169 -10.98596191 39.614151 C-10.9806033 37.29666408 -10.96300626 34.97917784 -10.93408203 32.66186523 C-10.89220405 29.10832414 -10.89301476 25.55667604 -10.89990234 22.00292969 C-10.889411 19.75226543 -10.8764732 17.50161097 -10.86083984 15.25097656 C-10.86063843 14.18531967 -10.86043701 13.11966278 -10.86022949 12.02171326 C-10.84431763 11.03381302 -10.82840576 10.04591278 -10.81201172 9.02807617 C-10.80359253 8.1585582 -10.79517334 7.28904022 -10.78649902 6.39317322 C-10.30562613 3.67181736 -9.57319826 2.81321145 -7.39208984 1.16113281 C-4.60569267 0.23233375 -2.88183253 0.02530248 0 0 Z " fill="#037FBB" transform="translate(18.39208984375,7.8388671875)"/>
<path d="M0 0 C2.64 0 5.28 0 8 0 C8.33 0.66 8.66 1.32 9 2 C9.99 1.34 10.98 0.68 12 0 C14.0859375 -0.40625 14.0859375 -0.40625 16.375 -0.5 C17.12523438 -0.5515625 17.87546875 -0.603125 18.6484375 -0.65625 C21.58475998 0.16318883 23.1876617 1.58943988 25.02734375 3.99902344 C27.0038088 8.06506448 26.5070234 12.45782248 26.3125 16.875 C26.28994141 17.84953125 26.26738281 18.8240625 26.24414062 19.828125 C26.18550753 22.22035515 26.10351153 24.6093615 26 27 C23.36 27 20.72 27 18 27 C17.95101562 25.79601562 17.90203125 24.59203125 17.8515625 23.3515625 C17.77653657 21.77601802 17.70098867 20.20049834 17.625 18.625 C17.5940625 17.8309375 17.563125 17.036875 17.53125 16.21875 C17.48183579 11.63332625 17.48183579 11.63332625 15 8 C11.69316534 8.28983269 11.69316534 8.28983269 9 10 C8.76298761 12.85877909 8.57780818 15.69883297 8.4375 18.5625 C8.39431641 19.36880859 8.35113281 20.17511719 8.30664062 21.00585938 C8.20024738 23.00368805 8.09959112 25.0018207 8 27 C5.36 27 2.72 27 0 27 C0 18.09 0 9.18 0 0 Z " fill="#FAFCFD" transform="translate(31,30)"/>
<path d="M0 0 C2.97 0 5.94 0 9 0 C9 8.91 9 17.82 9 27 C6.03 27 3.06 27 0 27 C0 18.09 0 9.18 0 0 Z " fill="#EAF4F9" transform="translate(17,30)"/>
<path d="M0 0 C2.5 0.25 2.5 0.25 4.5 2.25 C4.125 5.875 4.125 5.875 3.5 9.25 C-1.93440487 10.57841008 -1.93440487 10.57841008 -4.4375 9.125 C-5.5 7.25 -5.5 7.25 -5.3125 4.6875 C-4.22827241 1.43481722 -3.47807945 0.34780795 0 0 Z " fill="#EBF5F9" transform="translate(21.5,16.75)"/>
</svg>
